<svg version="1.1" xmlns="http://www.w3.org/2000/svg" viewBox="0 0 679 168.49507305374004" width="1358" height="336.9901461074801">
  <!-- svg-source:excalidraw -->
  
  <defs>
    <style class="style-fonts">
      @font-face {
        font-family: "Virgil";
        src: url("https://excalidraw.com/Virgil.woff2");
      }
      @font-face {
        font-family: "Cascadia";
        src: url("https://excalidraw.com/Cascadia.woff2");
      }
    </style>
  </defs>
  <rect x="0" y="0" width="679" height="168.49507305374004" fill="#ffffff"></rect><g stroke-linecap="round"><g transform="translate(56.78468729934639 30.915346008269466) rotate(0 -10.515604065129025 16.647991221115745)" fill-rule="evenodd"><path d="M-32.17 -18.69 C-32.17 -18.69, -32.17 -18.69, -32.17 -18.69 M-32.17 -18.69 C-32.17 -18.69, -32.17 -18.69, -32.17 -18.69 M-32.03 -12.8 C-31.95 -13.19, -30.08 -14.09, -28 -16.48 M-32.24 -12.37 C-31.53 -13.64, -30.27 -14.52, -28.2 -16.58 M-31.66 -6.53 C-30.46 -7.5, -28.53 -10.85, -24.8 -14.22 M-31.69 -6.58 C-29.82 -9.5, -27.55 -11.76, -25.08 -13.84 M-28.66 -3.72 C-27.71 -6.54, -23.88 -9.82, -21.8 -11.97 M-29.78 -3.16 C-27.46 -5.74, -25.46 -8.12, -21.89 -12.09 M-27.02 -0.37 C-24.56 -4.61, -21.78 -5.87, -19.07 -9.72 M-26.05 -1.34 C-23.12 -4.17, -21.53 -6.52, -17.84 -10.21 M-21.65 0.53 C-19.53 -1.84, -18.51 -4.55, -15.15 -7.89 M-22.09 0.08 C-20.91 -1.65, -19.23 -2.75, -14.45 -9.18 M-20.52 3.06 C-17.36 -0.1, -15.31 -2, -9.59 -6.85 M-19.48 2.47 C-16.31 0.4, -14.08 -3.35, -10.54 -6.27 M-15.81 4.32 C-12.22 1.76, -9.69 -1.32, -8.09 -4.32 M-15.04 5.28 C-12.71 2.32, -10.49 -0.09, -8.07 -3.73 M-12.2 7.88 C-9.91 3.78, -8.31 0.98, -4.02 -1.48 M-12.44 6.75 C-8.8 3.38, -5.88 -0.19, -3.57 -2.75 M-8.28 8.26 C-5.43 5.59, -1.95 1.83, 0.58 -1.37 M-8.87 8.86 C-6.19 7.25, -4.41 4.4, -0.99 -0.17 M-8.11 14.59 C-5.66 12.05, -1.57 7.88, 2.88 2.78 M-8.47 15.7 C-5.85 10.52, -2.43 7.81, 1.85 2.66 M-9.05 18.92 C-6.6 15.88, -1.9 13.57, 5.4 5.89 M-7.52 21.08 C-3.29 15.09, -0.07 9.56, 5.84 5.44 M-7.23 25.86 C-3.98 20.15, 2.65 15.56, 8.71 5.96 M-7.5 26.15 C-2.81 22.31, 0.49 15.94, 7.67 8.26 M-7.46 31.01 C-2.28 28.3, 1.17 23.83, 8.99 12.65 M-7.28 32.57 C-0.85 25.38, 6.55 16.43, 9.63 12.61 M-7.84 38.19 C-1.22 32.67, 1.02 26.77, 10.79 17.35 M-7.32 38.6 C-1.32 30.29, 6.8 23.33, 10.66 15.81 M-10.75 45.8 C0.44 35.56, 8.5 24.78, 15.34 21.04 M-8.21 47.22 C-3.54 39.28, 2.04 32.96, 13.03 20.39 M-6.57 50.04 C0.38 41.69, 6.03 34.8, 14.38 25.58 M-5.92 48.81 C1.15 40.23, 9.05 30.42, 12.7 26.88 M-1.16 50.27 C1.43 44.26, 6.33 38.32, 12.28 33.63 M-2.72 50.01 C0.75 45.92, 6.41 41.66, 13.86 31.21 M-0.26 51.97 C6.22 48.16, 9.22 43.09, 15.14 37.27 M0.78 52.18 C3.99 47.82, 9.04 44.72, 12.7 38.75 M5.64 54.36 C7.92 50.44, 11.07 48.35, 12.03 47.22 M5.62 53.56 C7.68 51.39, 9.42 49.07, 11.35 47.33 M-10.49 45.6 C-10.49 45.6, -10.49 45.6, -10.49 45.6 M-10.49 45.6 C-10.49 45.6, -10.49 45.6, -10.49 45.6 M5.07 54.36 C-0.76 46.95, -6.17 42.89, -8.78 41.34 M4.55 52.83 C0.3 49.28, -5.82 44.42, -9.85 40.09 M8.32 52.53 C4.78 48.33, 0.44 43.35, -9.04 36.16 M8.28 51.13 C2.59 45.21, -4.49 39.75, -9.92 34.15 M10.95 50.89 C5.07 42.66, -3.13 36.49, -10.36 29.4 M12.42 48.33 C4.15 41.34, -5.63 33.15, -10.92 29.44 M14.04 44.4 C3.01 34.94, -3.59 28.27, -11.25 25.87 M13.59 44.38 C7.93 40.66, 2.63 35.88, -10.12 24.25 M15.03 38.06 C5.36 35.25, 1.12 28.83, -9.86 18.07 M13.89 40.43 C4.91 32.93, -5.15 23.93, -10.7 19.21 M12 33.29 C2.86 27.34, -5.47 18.77, -8.95 11.94 M13.76 34.68 C3.43 26.74, -5.2 19.73, -10.34 14.54 M14.95 28.94 C9.19 26.49, 2.96 21.84, -8.87 7.18 M13.66 28.84 C5.68 23.62, -1.62 15.98, -9.64 7.79 M-29.85 -8.34 C-29.85 -8.34, -29.85 -8.34, -29.85 -8.34 M-29.85 -8.34 C-29.85 -8.34, -29.85 -8.34, -29.85 -8.34 M12.2 25.03 C3.92 18.05, -3.75 9.13, -30.57 -14.02 M12.53 23.54 C0.22 11.67, -14.12 -0.24, -29.45 -13.23 M10.6 17.03 C3.18 6.51, -7.6 1.06, -30.78 -19.85 M11.76 17.45 C-3.11 3.73, -17.82 -7.7, -31.23 -19.61 M8.27 11.82 C2.82 4.28, -2.35 -0.82, -14.29 -11.51 M9.59 10.26 C4.88 5.26, -0.48 0.06, -13.78 -9.72" stroke="#63d0ff" stroke-width="0.5" fill="none"></path><path d="M0.2 1.84 C-10.43 -6.98, -21.63 -13.22, -33.26 -20.19 M0.57 -0.76 C-6.18 -2.66, -13.61 -7.33, -31.66 -17.74 M-32.06 -19.5 C-31.6 -14.22, -32.66 -12.08, -31.83 -6.5 M-32.71 -18.62 C-31.92 -14.94, -32.4 -10.74, -32.51 -6.27 M-33.14 -3.99 C-29.05 -2.86, -21.8 0.85, -9.47 8.72 M-32.82 -6.42 C-23.42 -0.67, -15.51 4.06, -10.31 6.23 M-12.18 7.1 C-11.82 15.48, -10.02 23.88, -10.58 45.95 M-10.17 6.11 C-9.61 20.93, -10.39 34.32, -10.92 45.3 M-10.72 46.3 C-6.56 47.59, -4 50.26, -0.65 51.75 M-10.21 46.11 C-6.18 48, -2.42 49.85, 0.28 51.68 M-0.01 51.66 C-0.01 51.66, -0.01 51.66, -0.01 51.66 M-0.01 51.66 C-0.01 51.66, -0.01 51.66, -0.01 51.66 M-0.01 51.57 C0.49 52, 0.88 52.22, 1.27 52.25 M-0.01 51.67 C0.26 51.86, 0.54 51.94, 1.2 52.33 M1.06 52.24 C1.53 52.52, 1.82 52.55, 2.32 52.72 M1.2 52.34 C1.59 52.49, 1.9 52.64, 2.29 52.75 M2.23 52.74 C2.65 52.76, 2.7 52.98, 3.39 53.07 M2.36 52.76 C2.63 52.82, 2.81 52.97, 3.39 53.11 M3.41 53.01 C3.89 53.11, 4.2 53.36, 4.43 53.31 M3.41 53.1 C3.77 53.18, 4.04 53.25, 4.51 53.39 M4.44 53.42 C4.85 53.39, 5.04 53.42, 5.6 53.43 M4.44 53.39 C4.77 53.36, 5.13 53.45, 5.46 53.4 M5.58 53.41 C5.76 53.5, 6.1 53.45, 6.44 53.48 M5.51 53.42 C5.74 53.4, 5.96 53.42, 6.43 53.38 M6.47 53.41 C6.78 53.39, 6.93 53.28, 7.4 53.24 M6.48 53.41 C6.77 53.4, 6.97 53.34, 7.38 53.27 M7.43 53.25 C7.51 53.12, 7.77 53.11, 8.23 53.01 M7.34 53.3 C7.71 53.14, 8.03 53.02, 8.17 52.99 M8.15 52.99 C8.4 52.91, 8.63 52.78, 8.88 52.53 M8.22 53.02 C8.35 52.89, 8.63 52.76, 8.89 52.56 M8.96 52.63 C9.03 52.52, 9.27 52.41, 9.65 52.14 M8.96 52.56 C9.14 52.4, 9.37 52.28, 9.58 52.06 M9.57 52.11 C9.78 51.95, 9.89 51.72, 10.2 51.38 M9.58 52.11 C9.76 51.84, 9.96 51.63, 10.15 51.46 M10.24 51.39 C10.35 51.11, 10.57 50.87, 10.65 50.81 M10.21 51.43 C10.32 51.24, 10.51 50.94, 10.72 50.75 M10.62 50.8 C10.82 50.49, 10.96 50.08, 11.1 49.93 M10.67 50.7 C10.78 50.44, 10.94 50.22, 11.06 49.85 M11.08 49.92 C11.14 49.47, 11.36 49.25, 11.3 49.02 M11.03 49.92 C11.18 49.73, 11.22 49.43, 11.35 48.93 M11.26 48.95 C11.53 48.45, 11.46 48.18, 11.64 47.86 M11.37 48.99 C11.37 48.75, 11.47 48.43, 11.56 47.85 M11.65 48.01 C11.59 47.69, 11.68 47.36, 11.62 46.83 M11.5 47.93 C11.56 47.46, 11.62 47.09, 11.6 46.79 M11.85 46.5 C13.23 39.85, 10.3 31.35, 11.65 17.28 M11.35 46.49 C11.11 36.14, 10.83 27.11, 11.67 17.38 M11.6 18.32 C11.6 18.32, 11.6 18.32, 11.6 18.32 M11.6 18.32 C11.6 18.32, 11.6 18.32, 11.6 18.32 M11.54 18.37 C11.57 18.01, 11.59 17.86, 11.43 17.06 M11.63 18.33 C11.64 17.91, 11.62 17.57, 11.52 17.09 M11.6 17.05 C11.54 16.62, 11.34 16.47, 11.26 15.97 M11.5 17.06 C11.48 16.78, 11.49 16.54, 11.43 15.89 M11.15 16.04 C11.25 14.84, 10.69 14.19, 10.89 13.43 M11.25 15.73 C11.34 15.09, 11.03 14.55, 10.62 13.18 M10.47 13.14 C10.28 12.3, 9.68 11.14, 9.84 10.68 M10.75 13.35 C10.29 12.42, 10.01 11.51, 9.6 10.82 M9.74 10.86 C9.39 9.94, 8.56 9.05, 8.47 7.95 M9.76 10.6 C9.26 9.78, 8.8 9.17, 8.21 8.22 M8.01 7.89 C7.61 7.76, 7.09 6.8, 6.51 5.95 M8.15 8.08 C7.82 7.62, 7.46 7, 6.53 5.87 M6.42 5.88 C6.09 5.2, 5.32 4.48, 4.75 3.48 M6.5 5.84 C6.12 5.06, 5.61 4.5, 4.37 3.52 M4.26 3.34 C4.15 3.02, 3.42 2.49, 2.29 1.44 M4.47 3.48 C3.61 2.73, 2.78 1.88, 2.36 1.67 M2.07 1.51 C1.75 1.1, 0.88 0.46, 0.21 0.25 M2.27 1.61 C1.37 0.86, 0.46 0.21, 0.1 -0.09 M0 0 C0 0, 0 0, 0 0 M0 0 C0 0, 0 0, 0 0 M0 0 C0 0, 0 0, 0 0 M0 0 C0 0, 0 0, 0 0" stroke="#63d0ff" stroke-width="1" fill="none"></path></g></g><mask></mask><g stroke-linecap="round"><g transform="translate(44.66309104955258 38.21011666280185) rotate(0 -15.851645419506895 22.47070621201354)" fill-rule="evenodd"><path d="M-31.81 -18.37 C-31.81 -18.37, -31.81 -18.37, -31.81 -18.37 M-31.81 -18.37 C-31.81 -18.37, -31.81 -18.37, -31.81 -18.37 M-32.45 -11.8 C-30.4 -13.61, -29.24 -14.43, -28.28 -16.82 M-32.03 -12.04 C-30.94 -13.12, -30.37 -13.89, -27.93 -16.63 M-32.04 -5.79 C-28.99 -7.84, -27.93 -10.35, -25.48 -13.7 M-31.23 -5.92 C-28.89 -9.13, -26.57 -12.07, -25.24 -14.34 M-32.33 1.51 C-29.49 -5, -23.84 -8.61, -22.16 -13.03 M-32.08 0.8 C-28.33 -5.18, -23.2 -10, -21.61 -11.3 M-34.19 7.38 C-28.8 -0.59, -20.51 -6.67, -18.35 -10.29 M-32.64 7.12 C-29.43 3.1, -26.36 0.22, -17.03 -10.58 M-30.4 14.1 C-25.24 5.62, -18.89 -0.19, -14.39 -8.3 M-30.85 11.83 C-27.14 7.32, -20.99 0.04, -14.8 -8.08 M-32.63 17.54 C-23.6 9.93, -17.32 1.75, -8.87 -7.65 M-32.53 18.83 C-26.96 11.94, -20.66 4.66, -11.12 -6.49 M-31.73 25.58 C-21.73 12.27, -13.74 3.41, -7.76 -3.55 M-31.6 24.87 C-23.26 14.37, -15.95 7.08, -7.05 -4.37 M-32.09 29.56 C-23.51 19.19, -12 8.32, -2.99 -0.02 M-30.94 31.28 C-25.97 23.91, -19.86 16.09, -3.51 -1.5 M-31.36 35.16 C-23.3 26.94, -16.25 19.29, -1.34 -0.46 M-30.57 35.39 C-18.38 22.33, -6.21 6.08, -0.68 -0.85 M-30.75 41.51 C-17.21 28.13, -3.87 12.71, 4.49 3.17 M-32.46 42.12 C-25.01 33.83, -16.75 25.15, 2.48 2.66 M-29.42 46.62 C-17.58 32.52, -7.48 21.91, 0.93 9.57 M-29.42 45.89 C-20.74 34.38, -10.67 22.3, 2.72 9.92 M-28.06 47.93 C-20.14 39.25, -11.31 29.79, 5.07 15.3 M-27.19 47.71 C-18.76 39.91, -12.77 33.05, 3.58 15.32 M-21.26 50.52 C-12.1 40.13, -5.38 30.7, 3.82 21.35 M-23.27 49.88 C-15.15 41.71, -6.12 31.85, 2.04 21.82 M-18.51 51.65 C-11.79 44.24, -0.61 31.75, 4.85 25.12 M-18.49 52.99 C-13.33 47.39, -10.31 41.5, 2.9 27.45 M-15.89 56.72 C-13.71 49.75, -7.47 47.88, 2.27 31.43 M-15.15 54.43 C-9.43 48.51, -4.98 41.45, 2.05 32.75 M-10.41 57.28 C-7.28 54.5, -4.33 49.23, 4.25 40.23 M-11.84 56.88 C-8.95 52.7, -4.46 47.12, 3.55 39.09 M-8.92 60.35 C-3.88 52.63, -0.41 48.59, 2.17 45.8 M-8.93 58.35 C-5.48 53.53, -0.95 49.58, 2.26 44.43 M-5.99 59.84 C-2.12 59.59, -1.7 56.03, 3.01 52.05 M-5.31 60.53 C-2.3 58.22, -0.29 55.48, 2.27 51.05 M-1.06 62.29 C-0.52 61.25, 1.27 59.31, 2.99 57.19 M-1.33 62.73 C-0.48 61.4, 0.87 59.68, 3.17 57.1 M-31.43 45.3 C-31.43 45.3, -31.43 45.3, -31.43 45.3 M-31.43 45.3 C-31.43 45.3, -31.43 45.3, -31.43 45.3 M-12.28 56.27 C-20.43 48.71, -24.42 46.81, -30.76 39.13 M-14.64 56.4 C-17.75 52.12, -20.16 48.37, -32.61 40.4 M-0.78 62.13 C-8.61 52.92, -18.63 48.47, -31.55 35.19 M0.7 61.82 C-9.06 54.72, -18.44 46.77, -30.55 35.37 M1.71 59.19 C-6.47 50.14, -14.27 45.12, -33.24 29.44 M-0.03 57.78 C-7.28 51.72, -13.17 44.94, -31.38 28.77 M-0.78 51.57 C-9.87 40.03, -24.5 30.19, -30.06 23.16 M0.45 52.66 C-8.75 44.34, -18.82 34.96, -30.58 24.38 M1.51 48.3 C-4.8 41.62, -11.44 36.47, -32.15 17.4 M1.3 47.39 C-7.08 41.08, -14.3 33.24, -31.92 17.91 M-0.3 42.84 C-6.93 34.67, -14.82 27.87, -32.53 15.25 M0.62 41.45 C-11.71 30.41, -25.14 19.55, -30.95 13.77 M0 37.38 C-8.36 28.65, -18.11 21.6, -30.17 9.58 M0.71 35.72 C-12.14 25.13, -24.33 15.77, -32.54 7.25 M0.71 29.17 C-7.98 23.28, -14.46 16.73, -32.91 1.29 M0.61 31.25 C-10.94 21.92, -21.74 11.67, -32.36 3.33 M1.24 26.24 C-8.57 18.32, -17.47 10.55, -32.52 -0.95 M0.5 25.54 C-9.3 16.08, -19.96 7.69, -32.36 -3.08 M-0.93 21.64 C-7.14 12.51, -16.11 7.41, -31.64 -6.41 M0.33 21.23 C-7.19 12.59, -15.41 5.66, -32.28 -8.42 M-1.22 13.21 C-10.11 6.82, -20.54 -2.73, -30.87 -14.62 M0.21 14.39 C-7.06 9.83, -12.92 4.4, -31.19 -14.17 M1.06 9.82 C-6.67 2.71, -19.12 -4.9, -31.67 -17.03 M0.96 9.26 C-8.42 1.06, -16.63 -5.42, -30.93 -18.19 M-0.28 3.16 C-5 0.94, -10.44 -4.41, -13.35 -9.54 M0.6 4.51 C-3.25 1.92, -6.76 -1.6, -13.55 -8.61" stroke="#63d0ff" stroke-width="0.5" fill="none"></path><path d="M1.84 0.82 C-7.88 -3.31, -15.17 -9.64, -33.54 -20.19 M-0.76 0.34 C-9.07 -6.03, -19.85 -10.47, -31.09 -18.23 M-33.35 -17.07 C-31.46 -4.04, -34.1 11.77, -33.05 44.75 M-32 -17.63 C-31.74 -1.14, -30.93 15.89, -32.7 44.31 M-30.09 43.15 C-22.64 50.87, -12.44 56.81, 1.72 65.13 M-32.51 45.14 C-21.5 50.52, -11.41 57.11, -0.76 62.41 M0.11 61.76 C-0.45 44.8, -0.49 25.45, 0.23 0.89 M-0.88 64.05 C0.98 45.8, 1.03 27.7, -0.42 0.36 M0 0 C0 0, 0 0, 0 0 M0 0 C0 0, 0 0, 0 0" stroke="#63d0ff" stroke-width="1" fill="none"></path></g></g><mask></mask><g transform="translate(10 100.43575101984175) rotate(0 32 8)"><text x="0" y="11" font-family="Virgil, Segoe UI Emoji" font-size="11.864406779661017px" fill="#000000" text-anchor="start" style="white-space: pre;" direction="ltr">yaml config</text></g><g transform="translate(551 81.49014610748009) rotate(0 59 10.5)"><text x="0" y="15" font-family="Virgil, Segoe UI Emoji" font-size="16px" fill="#000000" text-anchor="start" style="white-space: pre;" direction="ltr">CloudFormation</text></g><g stroke-linecap="round" transform="translate(570.7694238175216 10) rotate(0 32.230576182478444 32.199712367130076)"><path d="M0 0 C0 0, 0 0, 0 0 M0 0 C0 0, 0 0, 0 0 M0.13 12.04 C4.03 7.56, 7.93 3.08, 10.63 -0.03 M0.13 12.04 C3.89 7.72, 7.65 3.4, 10.63 -0.03 M0.27 24.08 C5.26 18.34, 10.24 12.6, 21.26 -0.07 M0.27 24.08 C6.9 16.45, 13.53 8.82, 21.26 -0.07 M-0.26 36.88 C6.72 28.86, 13.69 20.84, 31.89 -0.1 M-0.26 36.88 C12.25 22.49, 24.76 8.09, 31.89 -0.1 M-0.12 48.92 C16.25 30.08, 32.63 11.24, 42.52 -0.14 M-0.12 48.92 C9.34 38.04, 18.8 27.15, 42.52 -0.14 M0.01 60.96 C16.63 41.84, 33.25 22.72, 53.15 -0.17 M0.01 60.96 C15.15 43.54, 30.29 26.13, 53.15 -0.17 M4.08 68.47 C17.51 53.02, 30.94 37.57, 63.78 -0.21 M4.08 68.47 C23.53 46.09, 42.99 23.71, 63.78 -0.21 M14.71 68.44 C33.51 46.81, 52.31 25.18, 69.82 5.04 M14.71 68.44 C26.77 54.56, 38.83 40.69, 69.82 5.04 M25.34 68.4 C35.61 56.58, 45.89 44.77, 69.95 17.08 M25.34 68.4 C34.91 57.4, 44.47 46.39, 69.95 17.08 M35.97 68.37 C48.24 54.26, 60.51 40.14, 70.08 29.12 M35.97 68.37 C49.27 53.07, 62.57 37.77, 70.08 29.12 M46.6 68.33 C52.38 61.68, 58.17 55.03, 70.22 41.16 M46.6 68.33 C53.66 60.21, 60.72 52.09, 70.22 41.16 M57.23 68.3 C59.73 65.43, 62.23 62.55, 69.69 53.96 M57.23 68.3 C59.99 65.12, 62.76 61.94, 69.69 53.96 M-0.19 64.24 C-0.19 64.24, -0.19 64.24, -0.19 64.24 M-0.19 64.24 C-0.19 64.24, -0.19 64.24, -0.19 64.24 M11.85 64.1 C8.58 61.26, 5.31 58.41, -0.22 53.61 M11.85 64.1 C7.46 60.29, 3.08 56.47, -0.22 53.61 M24.65 64.63 C15.76 56.9, 6.87 49.18, -0.26 42.98 M24.65 64.63 C19.03 59.74, 13.41 54.86, -0.26 42.98 M36.69 64.49 C23.6 53.11, 10.51 41.73, -0.29 32.35 M36.69 64.49 C26.02 55.22, 15.35 45.94, -0.29 32.35 M48.73 64.36 C37.99 55.02, 27.25 45.69, -0.33 21.72 M48.73 64.36 C38.16 55.17, 27.58 45.98, -0.33 21.72 M60.77 64.23 C48.14 53.25, 35.52 42.27, -0.36 11.09 M60.77 64.23 C42.67 48.49, 24.56 32.75, -0.36 11.09 M68.28 60.16 C53.34 47.16, 38.39 34.17, 0.36 1.11 M68.28 60.16 C48.13 42.64, 27.98 25.12, 0.36 1.11 M68.25 49.53 C45.35 29.62, 22.45 9.71, 4.85 -5.58 M68.25 49.53 C48.6 32.45, 28.96 15.37, 4.85 -5.58 M68.21 38.9 C53.84 26.4, 39.46 13.9, 16.89 -5.72 M68.21 38.9 C57.68 29.74, 47.14 20.58, 16.89 -5.72 M68.18 28.27 C55.41 17.17, 42.64 6.06, 28.93 -5.85 M68.18 28.27 C57.24 18.76, 46.3 9.25, 28.93 -5.85 M68.15 17.64 C60.38 10.88, 52.61 4.13, 41.73 -5.33 M68.15 17.64 C60.15 10.68, 52.15 3.73, 41.73 -5.33 M68.11 7.01 C62.64 2.25, 57.17 -2.51, 53.77 -5.46 M68.11 7.01 C62.71 2.31, 57.32 -2.38, 53.77 -5.46" stroke="#e6498088" stroke-width="1" fill="none"></path><path d="M0 0 C18.76 0, 37.51 0, 64.46 0 M0 0 C19.3 0, 38.6 0, 64.46 0 M64.46 0 C64.46 24.18, 64.46 48.36, 64.46 64.4 M64.46 0 C64.46 20.49, 64.46 40.98, 64.46 64.4 M64.46 64.4 C50.05 64.4, 35.65 64.4, 0 64.4 M64.46 64.4 C46.5 64.4, 28.54 64.4, 0 64.4 M0 64.4 C0 47.13, 0 29.86, 0 0 M0 64.4 C0 48.8, 0 33.21, 0 0" stroke="#000000" stroke-width="2" fill="none"></path></g><g stroke-linecap="round"><g transform="translate(579.2611921915397 34.984331668655614) rotate(0 26.36943771586698 -2.681664760698766)"><path d="M0 0 C0.4 -0.62, 1.22 -2.9, 2.38 -3.74 C3.55 -4.58, 6.14 -4.67, 6.99 -5.03 C7.85 -5.39, 7.27 -5.12, 7.52 -5.9 C7.76 -6.68, 7.58 -8.77, 8.46 -9.7 C9.34 -10.63, 11.42 -11.6, 12.81 -11.48 C14.2 -11.36, 16.05 -9.33, 16.78 -8.98 C17.52 -8.63, 16.13 -8.23, 17.22 -9.37 C18.31 -10.52, 20.81 -14.28, 23.32 -15.83 C25.83 -17.39, 29.37 -18.82, 32.27 -18.7 C35.16 -18.57, 38.62 -17.18, 40.69 -15.06 C42.76 -12.95, 43.91 -7.75, 44.68 -5.98 C45.45 -4.22, 44.19 -5.37, 45.31 -4.47 C46.43 -3.58, 50.21 -2.58, 51.4 -0.62 C52.59 1.34, 53.11 5.05, 52.45 7.28 C51.79 9.51, 49.25 11.76, 47.42 12.76 C45.59 13.75, 43.67 13.15, 41.46 13.24 C39.24 13.34, 37.18 13.33, 34.12 13.32 C31.05 13.31, 24.92 13.23, 23.08 13.21 M0 0 C0.4 -0.62, 1.22 -2.9, 2.38 -3.74 C3.55 -4.58, 6.14 -4.67, 6.99 -5.03 C7.85 -5.39, 7.27 -5.12, 7.52 -5.9 C7.76 -6.68, 7.58 -8.77, 8.46 -9.7 C9.34 -10.63, 11.42 -11.6, 12.81 -11.48 C14.2 -11.36, 16.05 -9.33, 16.78 -8.98 C17.52 -8.63, 16.13 -8.23, 17.22 -9.37 C18.31 -10.52, 20.81 -14.28, 23.32 -15.83 C25.83 -17.39, 29.37 -18.82, 32.27 -18.7 C35.16 -18.57, 38.62 -17.18, 40.69 -15.06 C42.76 -12.95, 43.91 -7.75, 44.68 -5.98 C45.45 -4.22, 44.19 -5.37, 45.31 -4.47 C46.43 -3.58, 50.21 -2.58, 51.4 -0.62 C52.59 1.34, 53.11 5.05, 52.45 7.28 C51.79 9.51, 49.25 11.76, 47.42 12.76 C45.59 13.75, 43.67 13.15, 41.46 13.24 C39.24 13.34, 37.18 13.33, 34.12 13.32 C31.05 13.31, 24.92 13.23, 23.08 13.21" stroke="#000000" stroke-width="2" fill="none"></path></g></g><mask></mask><g stroke-linecap="round"><g transform="translate(597.6464750174789 38.46951648364393) rotate(0 -11.157514408612087 11.856073721500664)"><path d="M0 0 C0 -0.78, 0.01 -1.56, 0.02 -3.8 M0 0 C0.01 -1.45, 0.02 -2.9, 0.02 -3.8 M0.02 -3.8 C-5.49 -3.85, -11 -3.9, -22.49 -4 M0.02 -3.8 C-8.06 -3.87, -16.14 -3.94, -22.49 -4 M-22.49 -4 C-22.52 2.39, -22.54 8.77, -22.63 27.56 M-22.49 -4 C-22.53 5.66, -22.57 15.32, -22.63 27.56 M-22.63 27.56 C-14.52 27.61, -6.4 27.67, 0.11 27.71 M-22.63 27.56 C-17.75 27.59, -12.88 27.62, 0.11 27.71 M0.11 27.71 C0.19 20.33, 0.26 12.95, 0.31 8.54 M0.11 27.71 C0.15 23.84, 0.19 19.97, 0.31 8.54" stroke="#000" stroke-width="2" fill="none"></path></g></g><mask></mask><g stroke-linecap="round"><g transform="translate(578.3637121534282 42.89406794911065) rotate(0 13.538793891499722 0.01572413545125073)"><path d="M0 0 C4.51 0.01, 22.56 0.03, 27.08 0.03 M0 0 C4.51 0.01, 22.56 0.03, 27.08 0.03" stroke="#000000" stroke-width="2" fill="none"></path></g></g><mask></mask><g stroke-linecap="round"><g transform="translate(578.7079008007784 47.33122035578435) rotate(0 7.005228472968554 0.015724135451264942)"><path d="M0 0 C2.34 0.01, 11.68 0.03, 14.01 0.03 M0 0 C2.34 0.01, 11.68 0.03, 14.01 0.03" stroke="#000000" stroke-width="2" fill="none"></path></g></g><mask></mask><g stroke-linecap="round"><g transform="translate(578.8508450494157 51.484676524569295) rotate(0 4.127106020400163 0)"><path d="M0 0 C1.38 0, 6.88 0, 8.25 0 M0 0 C1.38 0, 6.88 0, 8.25 0" stroke="#000000" stroke-width="2" fill="none"></path></g></g><mask></mask><g stroke-linecap="round"><g transform="translate(578.897725258453 55.092533173049105) rotate(0 7.005228472968554 0.015724135451279153)"><path d="M0 0 C2.34 0.01, 11.68 0.03, 14.01 0.03 M0 0 C2.34 0.01, 11.68 0.03, 14.01 0.03" stroke="#000000" stroke-width="2" fill="none"></path></g></g><mask></mask><g stroke-linecap="round"><g transform="translate(578.2686094082426 58.76871612720015) rotate(0 4.127106020400163 0)"><path d="M0 0 C1.38 0, 6.88 0, 8.25 0 M0 0 C1.38 0, 6.88 0, 8.25 0" stroke="#000000" stroke-width="2" fill="none"></path></g></g><mask></mask><g stroke-linecap="round"><g transform="translate(578.6313829074236 38.68929757376054) rotate(0 7.005228472968554 0.015724135451264942)"><path d="M0 0 C2.34 0.01, 11.68 0.03, 14.01 0.03 M0 0 C2.34 0.01, 11.68 0.03, 14.01 0.03" stroke="#000000" stroke-width="2" fill="none"></path></g></g><mask></mask><g stroke-linecap="round"><g transform="translate(608.6995954293382 42.93930293472977) rotate(0 1.5165865046825502 0.01572413545125073)"><path d="M0 0 C0.51 0.01, 2.53 0.03, 3.03 0.03 M0 0 C0.51 0.01, 2.53 0.03, 3.03 0.03" stroke="#000000" stroke-width="2" fill="none"></path></g></g><mask></mask><g stroke-linecap="round" transform="translate(226.1559810350866 25.036486188615186) rotate(0 26.472366346020863 36.076519007774834)"><path d="M1.12 -0.79 L51.05 0.09 L52.92 72.9 L-1.41 72.56" stroke="none" stroke-width="0" fill="#89e051"></path><path d="M-0.19 -1.8 C21.93 1.45, 39.41 -0.14, 51.57 -1.84 M0.07 0.29 C11.71 0.05, 22.11 -0.57, 53.78 0.5 M51.89 0.83 C53.46 21.17, 51.93 43.67, 52.59 73.09 M53.41 -0.55 C52.75 14.92, 52.04 31.04, 53.39 72.02 M53.47 73.21 C36.43 73.19, 19.85 74.1, 1.44 73.38 M52.35 71.89 C32.38 71.14, 13.02 72.08, 0.38 72.42 M-1.35 72.44 C-0.54 43.43, -0.4 16.77, -1.42 -0.58 M-0.22 72.67 C-1.18 49.69, -0.23 27.61, 0.14 0.01" stroke="#000000" stroke-width="4" fill="none"></path></g><g stroke-linecap="round" transform="translate(249.86245641030246 33.76387731458064) rotate(0 17.577066359754156 9.039230590793622)"><path d="M-0.79 -1.89 L35.24 -0.02 L35.9 16.67 L0.41 18.96" stroke="none" stroke-width="0" fill="#fff"></path><path d="M-1.8 1.7 C11.02 -1, 19.49 -1.34, 33.32 -1.76 M0.29 0.48 C13.92 -0.38, 26.91 0.81, 35.65 0.01 M35.9 0.3 C34.59 4.8, 35.27 11.45, 36 16.6 M34.65 0.28 C34.57 3.79, 34.92 8.69, 35.03 18.36 M36.21 19.07 C22.89 20.1, 11.02 19.61, 1.23 19.62 M34.89 17.47 C20.85 17.86, 8.28 18.25, 0.27 18.85 M0.26 17.25 C-1.42 12.89, -0.91 7.8, -0.52 0.19 M0.47 17.24 C-0.03 12.04, 0.27 6.09, 0.01 0.51" stroke="#000000" stroke-width="4" fill="none"></path></g><g transform="translate(254.74848056076712 36.58936593876916) rotate(0 14 8)"><text x="0" y="11" font-family="Virgil, Segoe UI Emoji" font-size="12.052307454391483px" fill="#000000" text-anchor="start" style="white-space: pre;" direction="ltr">Shell</text></g><g transform="translate(240.40585883505798 65.24141588756606) rotate(0 15 14)"><text x="0" y="20" font-family="Virgil, Segoe UI Emoji" font-size="21.69415341790467px" fill="#000" text-anchor="start" style="white-space: pre;" direction="ltr">&gt;_</text></g><g transform="translate(217.30935090206196 102.80963523149364) rotate(0 35.5 8)"><text x="0" y="11" font-family="Virgil, Segoe UI Emoji" font-size="12.052307454391483px" fill="#000" text-anchor="start" style="white-space: pre;" direction="ltr">cnf-compose</text></g><g stroke-linecap="round"><g transform="translate(73 58.99507305374004) rotate(0 72.56280904498882 -0.5690031210154984)"><path d="M-0.07 0.85 C24.47 0.52, 122.19 -1.54, 146.69 -1.99 M-1.56 0.25 C22.84 0.11, 120.97 -0.38, 145.57 -0.5" stroke="#000000" stroke-width="1" fill="none"></path></g><g transform="translate(73 58.99507305374004) rotate(0 72.56280904498882 -0.5690031210154984)"><path d="M118.85 9.37 C124.41 7.08, 131.79 4, 146.14 -0.25 M117.77 10.16 C126 6.51, 132.7 4.53, 144.97 -0.02" stroke="#000000" stroke-width="1" fill="none"></path></g><g transform="translate(73 58.99507305374004) rotate(0 72.56280904498882 -0.5690031210154984)"><path d="M118.75 -11.15 C124.34 -8.23, 131.75 -6.09, 146.14 -0.25 M117.66 -10.36 C126.05 -8.4, 132.78 -4.78, 144.97 -0.02" stroke="#000000" stroke-width="1" fill="none"></path></g></g><mask></mask><g stroke-linecap="round"><g transform="translate(292.3900892067278 57.50137074208067) rotate(0 138.26757566700945 -19.701076675027934)"><path d="M-0.37 1.07 C45.34 -5.72, 228.79 -33.83, 274.68 -40.47 M1.64 0.59 C47.68 -6.1, 231.54 -32.55, 276.9 -39.43" stroke="#000000" stroke-width="1" fill="none"></path></g><g transform="translate(292.3900892067278 57.50137074208067) rotate(0 138.26757566700945 -19.701076675027934)"><path d="M252.29 -26.73 C257.84 -31.02, 269.63 -36.32, 278.71 -38.95 M250.14 -25.18 C258.83 -29.87, 266.31 -33.22, 276.89 -39.37" stroke="#000000" stroke-width="1" fill="none"></path></g><g transform="translate(292.3900892067278 57.50137074208067) rotate(0 138.26757566700945 -19.701076675027934)"><path d="M249.3 -47.03 C255.9 -44.44, 268.71 -42.86, 278.71 -38.95 M247.15 -45.49 C256.85 -44.24, 265.21 -41.63, 276.89 -39.37" stroke="#000000" stroke-width="1" fill="none"></path></g></g><mask></mask><g stroke-linecap="round"><g transform="translate(288 69.78755480025876) rotate(0 139.70364759968595 -15.167867401358961)"><path d="M-0.18 1.1 C46.43 -3.68, 232.19 -24.46, 278.97 -29.75 M-1.74 0.63 C45.3 -4.39, 234.18 -26.45, 281.14 -31.44" stroke="#000000" stroke-width="1" fill="none"></path></g><g transform="translate(288 69.78755480025876) rotate(0 139.70364759968595 -15.167867401358961)"><path d="M256.11 -19.81 C262.23 -20.39, 267.3 -24.97, 281.35 -30.47 M255.19 -19.05 C261.56 -21.68, 270.59 -26.93, 281.66 -31.66" stroke="#000000" stroke-width="1" fill="none"></path></g><g transform="translate(288 69.78755480025876) rotate(0 139.70364759968595 -15.167867401358961)"><path d="M253.82 -40.21 C260.32 -35.86, 265.94 -35.53, 281.35 -30.47 M252.9 -39.44 C260.17 -35.79, 269.9 -34.77, 281.66 -31.66" stroke="#000000" stroke-width="1" fill="none"></path></g></g><mask></mask><g stroke-linecap="round"><g transform="translate(289 77.2781799030854) rotate(0 140.39853479697115 -5.912930156029489)"><path d="M-0.83 1 C46.29 -0.99, 234.62 -10.55, 281.63 -12.82 M0.93 0.47 C48.07 -1.31, 234.5 -9.73, 281.13 -11.76" stroke="#000000" stroke-width="1" fill="none"></path></g><g transform="translate(289 77.2781799030854) rotate(0 140.39853479697115 -5.912930156029489)"><path d="M255.09 1.17 C257.7 -1.66, 263.67 -4.81, 280.38 -13.13 M254.4 -0.84 C263.33 -5.2, 275.91 -9.38, 281.76 -12.53" stroke="#000000" stroke-width="1" fill="none"></path></g><g transform="translate(289 77.2781799030854) rotate(0 140.39853479697115 -5.912930156029489)"><path d="M254.18 -19.33 C256.83 -17.93, 262.98 -16.87, 280.38 -13.13 M253.49 -21.34 C262.94 -17.72, 275.87 -13.92, 281.76 -12.53" stroke="#000000" stroke-width="1" fill="none"></path></g></g><mask></mask><g transform="translate(342 87.49507305374004) rotate(0 86.5 10.5)"><text x="0" y="15" font-family="Virgil, Segoe UI Emoji" font-size="16px" fill="#000000" text-anchor="start" style="white-space: pre;" direction="ltr">create/update/delete</text></g><g transform="translate(277 137.49507305374004) rotate(0 50 10.5)"><text x="0" y="15" font-family="Virgil, Segoe UI Emoji" font-size="16px" fill="#000000" text-anchor="start" style="white-space: pre;" direction="ltr">fig. Overview</text></g></svg>